<?xml version='1.0' encoding='UTF-8'?>
<svg width="45mm" height="45mm" version="1.1" viewBox="0 0 45 45" xmlns="http://www.w3.org/2000/svg"><path d="M2,2H3V3H2zM3,2H4V3H3zM4,2H5V3H4zM5,2H6V3H5zM6,2H7V3H6zM7,2H8V3H7zM8,2H9V3H8zM12,2H13V3H12zM14,2H15V3H14zM16,2H17V3H16zM17,2H18V3H17zM18,2H19V3H18zM24,2H25V3H24zM26,2H27V3H26zM29,2H30V3H29zM30,2H31V3H30zM31,2H32V3H31zM32,2H33V3H32zM36,2H37V3H36zM37,2H38V3H37zM38,2H39V3H38zM39,2H40V3H39zM40,2H41V3H40zM41,2H42V3H41zM42,2H43V3H42zM2,3H3V4H2zM8,3H9V4H8zM10,3H11V4H10zM11,3H12V4H11zM13,3H14V4H13zM17,3H18V4H17zM19,3H20V4H19zM21,3H22V4H21zM22,3H23V4H22zM23,3H24V4H23zM30,3H31V4H30zM32,3H33V4H32zM33,3H34V4H33zM36,3H37V4H36zM42,3H43V4H42zM2,4H3V5H2zM4,4H5V5H4zM5,4H6V5H5zM6,4H7V5H6zM8,4H9V5H8zM11,4H12V5H11zM15,4H16V5H15zM16,4H17V5H16zM21,4H22V5H21zM23,4H24V5H23zM25,4H26V5H25zM27,4H28V5H27zM29,4H30V5H29zM30,4H31V5H30zM31,4H32V5H31zM32,4H33V5H32zM33,4H34V5H33zM36,4H37V5H36zM38,4H39V5H38zM39,4H40V5H39zM40,4H41V5H40zM42,4H43V5H42zM2,5H3V6H2zM4,5H5V6H4zM5,5H6V6H5zM6,5H7V6H6zM8,5H9V6H8zM11,5H12V6H11zM16,5H17V6H16zM17,5H18V6H17zM18,5H19V6H18zM19,5H20V6H19zM22,5H23V6H22zM23,5H24V6H23zM24,5H25V6H24zM26,5H27V6H26zM28,5H29V6H28zM29,5H30V6H29zM30,5H31V6H30zM32,5H33V6H32zM36,5H37V6H36zM38,5H39V6H38zM39,5H40V6H39zM40,5H41V6H40zM42,5H43V6H42zM2,6H3V7H2zM4,6H5V7H4zM5,6H6V7H5zM6,6H7V7H6zM8,6H9V7H8zM11,6H12V7H11zM13,6H14V7H13zM14,6H15V7H14zM15,6H16V7H15zM16,6H17V7H16zM19,6H20V7H19zM23,6H24V7H23zM24,6H25V7H24zM28,6H29V7H28zM29,6H30V7H29zM30,6H31V7H30zM31,6H32V7H31zM32,6H33V7H32zM36,6H37V7H36zM38,6H39V7H38zM39,6H40V7H39zM40,6H41V7H40zM42,6H43V7H42zM2,7H3V8H2zM8,7H9V8H8zM10,7H11V8H10zM11,7H12V8H11zM13,7H14V8H13zM14,7H15V8H14zM16,7H17V8H16zM17,7H18V8H17zM18,7H19V8H18zM19,7H20V8H19zM20,7H21V8H20zM21,7H22V8H21zM22,7H23V8H22zM23,7H24V8H23zM24,7H25V8H24zM25,7H26V8H25zM26,7H27V8H26zM30,7H31V8H30zM33,7H34V8H33zM34,7H35V8H34zM36,7H37V8H36zM42,7H43V8H42zM2,8H3V9H2zM3,8H4V9H3zM4,8H5V9H4zM5,8H6V9H5zM6,8H7V9H6zM7,8H8V9H7zM8,8H9V9H8zM10,8H11V9H10zM12,8H13V9H12zM14,8H15V9H14zM16,8H17V9H16zM18,8H19V9H18zM20,8H21V9H20zM22,8H23V9H22zM24,8H25V9H24zM26,8H27V9H26zM28,8H29V9H28zM30,8H31V9H30zM32,8H33V9H32zM34,8H35V9H34zM36,8H37V9H36zM37,8H38V9H37zM38,8H39V9H38zM39,8H40V9H39zM40,8H41V9H40zM41,8H42V9H41zM42,8H43V9H42zM10,9H11V10H10zM12,9H13V10H12zM14,9H15V10H14zM17,9H18V10H17zM18,9H19V10H18zM21,9H22V10H21zM23,9H24V10H23zM24,9H25V10H24zM26,9H27V10H26zM27,9H28V10H27zM28,9H29V10H28zM29,9H30V10H29zM31,9H32V10H31zM32,9H33V10H32zM33,9H34V10H33zM34,9H35V10H34zM6,10H7V11H6zM7,10H8V11H7zM8,10H9V11H8zM9,10H10V11H9zM12,10H13V11H12zM14,10H15V11H14zM15,10H16V11H15zM16,10H17V11H16zM17,10H18V11H17zM18,10H19V11H18zM19,10H20V11H19zM22,10H23V11H22zM28,10H29V11H28zM31,10H32V11H31zM34,10H35V11H34zM36,10H37V11H36zM37,10H38V11H37zM41,10H42V11H41zM3,11H4V12H3zM4,11H5V12H4zM6,11H7V12H6zM7,11H8V12H7zM9,11H10V12H9zM10,11H11V12H10zM13,11H14V12H13zM14,11H15V12H14zM16,11H17V12H16zM17,11H18V12H17zM21,11H22V12H21zM22,11H23V12H22zM23,11H24V12H23zM24,11H25V12H24zM25,11H26V12H25zM27,11H28V12H27zM28,11H29V12H28zM29,11H30V12H29zM30,11H31V12H30zM32,11H33V12H32zM36,11H37V12H36zM37,11H38V12H37zM38,11H39V12H38zM39,11H40V12H39zM41,11H42V12H41zM42,11H43V12H42zM3,12H4V13H3zM4,12H5V13H4zM6,12H7V13H6zM8,12H9V13H8zM9,12H10V13H9zM16,12H17V13H16zM17,12H18V13H17zM18,12H19V13H18zM19,12H20V13H19zM22,12H23V13H22zM23,12H24V13H23zM27,12H28V13H27zM28,12H29V13H28zM29,12H30V13H29zM32,12H33V13H32zM34,12H35V13H34zM38,12H39V13H38zM42,12H43V13H42zM2,13H3V14H2zM3,13H4V14H3zM6,13H7V14H6zM15,13H16V14H15zM16,13H17V14H16zM20,13H21V14H20zM21,13H22V14H21zM22,13H23V14H22zM23,13H24V14H23zM24,13H25V14H24zM25,13H26V14H25zM27,13H28V14H27zM29,13H30V14H29zM30,13H31V14H30zM31,13H32V14H31zM32,13H33V14H32zM33,13H34V14H33zM34,13H35V14H34zM37,13H38V14H37zM39,13H40V14H39zM42,13H43V14H42zM2,14H3V15H2zM3,14H4V15H3zM4,14H5V15H4zM5,14H6V15H5zM8,14H9V15H8zM9,14H10V15H9zM10,14H11V15H10zM11,14H12V15H11zM12,14H13V15H12zM15,14H16V15H15zM17,14H18V15H17zM18,14H19V15H18zM19,14H20V15H19zM20,14H21V15H20zM21,14H22V15H21zM24,14H25V15H24zM25,14H26V15H25zM26,14H27V15H26zM27,14H28V15H27zM29,14H30V15H29zM31,14H32V15H31zM34,14H35V15H34zM35,14H36V15H35zM42,14H43V15H42zM3,15H4V16H3zM4,15H5V16H4zM5,15H6V16H5zM9,15H10V16H9zM12,15H13V16H12zM15,15H16V16H15zM19,15H20V16H19zM25,15H26V16H25zM26,15H27V16H26zM27,15H28V16H27zM32,15H33V16H32zM36,15H37V16H36zM37,15H38V16H37zM38,15H39V16H38zM40,15H41V16H40zM42,15H43V16H42zM5,16H6V17H5zM6,16H7V17H6zM8,16H9V17H8zM10,16H11V17H10zM12,16H13V17H12zM13,16H14V17H13zM15,16H16V17H15zM16,16H17V17H16zM18,16H19V17H18zM21,16H22V17H21zM23,16H24V17H23zM27,16H28V17H27zM29,16H30V17H29zM31,16H32V17H31zM32,16H33V17H32zM34,16H35V17H34zM35,16H36V17H35zM36,16H37V17H36zM38,16H39V17H38zM39,16H40V17H39zM42,16H43V17H42zM3,17H4V18H3zM4,17H5V18H4zM5,17H6V18H5zM9,17H10V18H9zM10,17H11V18H10zM11,17H12V18H11zM13,17H14V18H13zM14,17H15V18H14zM16,17H17V18H16zM18,17H19V18H18zM20,17H21V18H20zM21,17H22V18H21zM22,17H23V18H22zM23,17H24V18H23zM25,17H26V18H25zM27,17H28V18H27zM28,17H29V18H28zM29,17H30V18H29zM30,17H31V18H30zM31,17H32V18H31zM32,17H33V18H32zM33,17H34V18H33zM37,17H38V18H37zM39,17H40V18H39zM41,17H42V18H41zM3,18H4V19H3zM5,18H6V19H5zM6,18H7V19H6zM8,18H9V19H8zM10,18H11V19H10zM12,18H13V19H12zM14,18H15V19H14zM18,18H19V19H18zM19,18H20V19H19zM22,18H23V19H22zM23,18H24V19H23zM24,18H25V19H24zM26,18H27V19H26zM28,18H29V19H28zM30,18H31V19H30zM31,18H32V19H31zM37,18H38V19H37zM39,18H40V19H39zM41,18H42V19H41zM42,18H43V19H42zM2,19H3V20H2zM6,19H7V20H6zM7,19H8V20H7zM9,19H10V20H9zM10,19H11V20H10zM11,19H12V20H11zM13,19H14V20H13zM14,19H15V20H14zM15,19H16V20H15zM16,19H17V20H16zM18,19H19V20H18zM19,19H20V20H19zM21,19H22V20H21zM23,19H24V20H23zM24,19H25V20H24zM26,19H27V20H26zM28,19H29V20H28zM29,19H30V20H29zM30,19H31V20H30zM31,19H32V20H31zM35,19H36V20H35zM36,19H37V20H36zM37,19H38V20H37zM38,19H39V20H38zM39,19H40V20H39zM41,19H42V20H41zM42,19H43V20H42zM2,20H3V21H2zM6,20H7V21H6zM8,20H9V21H8zM9,20H10V21H9zM12,20H13V21H12zM13,20H14V21H13zM14,20H15V21H14zM15,20H16V21H15zM16,20H17V21H16zM18,20H19V21H18zM19,20H20V21H19zM21,20H22V21H21zM22,20H23V21H22zM25,20H26V21H25zM27,20H28V21H27zM29,20H30V21H29zM32,20H33V21H32zM34,20H35V21H34zM37,20H38V21H37zM39,20H40V21H39zM42,20H43V21H42zM2,21H3V22H2zM3,21H4V22H3zM4,21H5V22H4zM5,21H6V22H5zM7,21H8V22H7zM10,21H11V22H10zM11,21H12V22H11zM15,21H16V22H15zM17,21H18V22H17zM18,21H19V22H18zM21,21H22V22H21zM22,21H23V22H22zM27,21H28V22H27zM29,21H30V22H29zM31,21H32V22H31zM33,21H34V22H33zM35,21H36V22H35zM36,21H37V22H36zM37,21H38V22H37zM39,21H40V22H39zM41,21H42V22H41zM2,22H3V23H2zM7,22H8V23H7zM8,22H9V23H8zM10,22H11V23H10zM11,22H12V23H11zM13,22H14V23H13zM17,22H18V23H17zM18,22H19V23H18zM19,22H20V23H19zM26,22H27V23H26zM30,22H31V23H30zM31,22H32V23H31zM33,22H34V23H33zM34,22H35V23H34zM35,22H36V23H35zM37,22H38V23H37zM39,22H40V23H39zM5,23H6V24H5zM6,23H7V24H6zM7,23H8V24H7zM9,23H10V24H9zM13,23H14V24H13zM14,23H15V24H14zM15,23H16V24H15zM16,23H17V24H16zM17,23H18V24H17zM18,23H19V24H18zM21,23H22V24H21zM22,23H23V24H22zM23,23H24V24H23zM24,23H25V24H24zM28,23H29V24H28zM29,23H30V24H29zM30,23H31V24H30zM32,23H33V24H32zM34,23H35V24H34zM36,23H37V24H36zM38,23H39V24H38zM39,23H40V24H39zM40,23H41V24H40zM42,23H43V24H42zM2,24H3V25H2zM3,24H4V25H3zM6,24H7V25H6zM8,24H9V25H8zM9,24H10V25H9zM10,24H11V25H10zM11,24H12V25H11zM13,24H14V25H13zM14,24H15V25H14zM16,24H17V25H16zM17,24H18V25H17zM20,24H21V25H20zM21,24H22V25H21zM23,24H24V25H23zM25,24H26V25H25zM26,24H27V25H26zM28,24H29V25H28zM29,24H30V25H29zM30,24H31V25H30zM31,24H32V25H31zM35,24H36V25H35zM36,24H37V25H36zM38,24H39V25H38zM42,24H43V25H42zM2,25H3V26H2zM5,25H6V26H5zM6,25H7V26H6zM11,25H12V26H11zM13,25H14V26H13zM15,25H16V26H15zM16,25H17V26H16zM18,25H19V26H18zM23,25H24V26H23zM26,25H27V26H26zM29,25H30V26H29zM30,25H31V26H30zM31,25H32V26H31zM32,25H33V26H32zM33,25H34V26H33zM36,25H37V26H36zM38,25H39V26H38zM39,25H40V26H39zM42,25H43V26H42zM2,26H3V27H2zM5,26H6V27H5zM8,26H9V27H8zM9,26H10V27H9zM11,26H12V27H11zM15,26H16V27H15zM16,26H17V27H16zM18,26H19V27H18zM19,26H20V27H19zM21,26H22V27H21zM22,26H23V27H22zM24,26H25V27H24zM26,26H27V27H26zM27,26H28V27H27zM28,26H29V27H28zM29,26H30V27H29zM31,26H32V27H31zM33,26H34V27H33zM34,26H35V27H34zM35,26H36V27H35zM39,26H40V27H39zM42,26H43V27H42zM2,27H3V28H2zM3,27H4V28H3zM6,27H7V28H6zM7,27H8V28H7zM10,27H11V28H10zM15,27H16V28H15zM18,27H19V28H18zM19,27H20V28H19zM24,27H25V28H24zM25,27H26V28H25zM27,27H28V28H27zM28,27H29V28H28zM29,27H30V28H29zM30,27H31V28H30zM31,27H32V28H31zM34,27H35V28H34zM36,27H37V28H36zM37,27H38V28H37zM38,27H39V28H38zM40,27H41V28H40zM42,27H43V28H42zM3,28H4V29H3zM4,28H5V29H4zM5,28H6V29H5zM6,28H7V29H6zM8,28H9V29H8zM10,28H11V29H10zM11,28H12V29H11zM12,28H13V29H12zM14,28H15V29H14zM15,28H16V29H15zM17,28H18V29H17zM20,28H21V29H20zM22,28H23V29H22zM24,28H25V29H24zM27,28H28V29H27zM29,28H30V29H29zM30,28H31V29H30zM31,28H32V29H31zM34,28H35V29H34zM35,28H36V29H35zM36,28H37V29H36zM38,28H39V29H38zM42,28H43V29H42zM3,29H4V30H3zM4,29H5V30H4zM5,29H6V30H5zM9,29H10V30H9zM10,29H11V30H10zM13,29H14V30H13zM14,29H15V30H14zM15,29H16V30H15zM16,29H17V30H16zM17,29H18V30H17zM20,29H21V30H20zM22,29H23V30H22zM23,29H24V30H23zM25,29H26V30H25zM26,29H27V30H26zM28,29H29V30H28zM29,29H30V30H29zM31,29H32V30H31zM32,29H33V30H32zM33,29H34V30H33zM34,29H35V30H34zM38,29H39V30H38zM39,29H40V30H39zM42,29H43V30H42zM2,30H3V31H2zM3,30H4V31H3zM4,30H5V31H4zM6,30H7V31H6zM7,30H8V31H7zM8,30H9V31H8zM9,30H10V31H9zM10,30H11V31H10zM11,30H12V31H11zM12,30H13V31H12zM13,30H14V31H13zM15,30H16V31H15zM19,30H20V31H19zM22,30H23V31H22zM23,30H24V31H23zM24,30H25V31H24zM25,30H26V31H25zM26,30H27V31H26zM30,30H31V31H30zM31,30H32V31H31zM34,30H35V31H34zM37,30H38V31H37zM41,30H42V31H41zM2,31H3V32H2zM3,31H4V32H3zM7,31H8V32H7zM10,31H11V32H10zM11,31H12V32H11zM12,31H13V32H12zM13,31H14V32H13zM14,31H15V32H14zM16,31H17V32H16zM17,31H18V32H17zM18,31H19V32H18zM21,31H22V32H21zM23,31H24V32H23zM28,31H29V32H28zM29,31H30V32H29zM35,31H36V32H35zM36,31H37V32H36zM37,31H38V32H37zM38,31H39V32H38zM40,31H41V32H40zM42,31H43V32H42zM4,32H5V33H4zM6,32H7V33H6zM8,32H9V33H8zM9,32H10V33H9zM11,32H12V33H11zM12,32H13V33H12zM13,32H14V33H13zM14,32H15V33H14zM17,32H18V33H17zM18,32H19V33H18zM19,32H20V33H19zM20,32H21V33H20zM23,32H24V33H23zM24,32H25V33H24zM26,32H27V33H26zM27,32H28V33H27zM29,32H30V33H29zM34,32H35V33H34zM35,32H36V33H35zM38,32H39V33H38zM39,32H40V33H39zM41,32H42V33H41zM42,32H43V33H42zM4,33H5V34H4zM5,33H6V34H5zM6,33H7V34H6zM7,33H8V34H7zM9,33H10V34H9zM10,33H11V34H10zM12,33H13V34H12zM15,33H16V34H15zM16,33H17V34H16zM19,33H20V34H19zM22,33H23V34H22zM23,33H24V34H23zM27,33H28V34H27zM29,33H30V34H29zM31,33H32V34H31zM32,33H33V34H32zM34,33H35V34H34zM35,33H36V34H35zM37,33H38V34H37zM39,33H40V34H39zM41,33H42V34H41zM2,34H3V35H2zM3,34H4V35H3zM5,34H6V35H5zM7,34H8V35H7zM8,34H9V35H8zM9,34H10V35H9zM10,34H11V35H10zM11,34H12V35H11zM13,34H14V35H13zM17,34H18V35H17zM19,34H20V35H19zM23,34H24V35H23zM26,34H27V35H26zM28,34H29V35H28zM29,34H30V35H29zM31,34H32V35H31zM32,34H33V35H32zM34,34H35V35H34zM35,34H36V35H35zM36,34H37V35H36zM37,34H38V35H37zM38,34H39V35H38zM10,35H11V36H10zM12,35H13V36H12zM13,35H14V36H13zM14,35H15V36H14zM16,35H17V36H16zM17,35H18V36H17zM19,35H20V36H19zM20,35H21V36H20zM21,35H22V36H21zM23,35H24V36H23zM25,35H26V36H25zM26,35H27V36H26zM28,35H29V36H28zM29,35H30V36H29zM30,35H31V36H30zM32,35H33V36H32zM34,35H35V36H34zM38,35H39V36H38zM42,35H43V36H42zM2,36H3V37H2zM3,36H4V37H3zM4,36H5V37H4zM5,36H6V37H5zM6,36H7V37H6zM7,36H8V37H7zM8,36H9V37H8zM10,36H11V37H10zM12,36H13V37H12zM14,36H15V37H14zM15,36H16V37H15zM17,36H18V37H17zM19,36H20V37H19zM21,36H22V37H21zM22,36H23V37H22zM29,36H30V37H29zM31,36H32V37H31zM32,36H33V37H32zM33,36H34V37H33zM34,36H35V37H34zM36,36H37V37H36zM38,36H39V37H38zM39,36H40V37H39zM40,36H41V37H40zM42,36H43V37H42zM2,37H3V38H2zM8,37H9V38H8zM10,37H11V38H10zM11,37H12V38H11zM15,37H16V38H15zM17,37H18V38H17zM19,37H20V38H19zM20,37H21V38H20zM21,37H22V38H21zM23,37H24V38H23zM25,37H26V38H25zM27,37H28V38H27zM29,37H30V38H29zM31,37H32V38H31zM32,37H33V38H32zM33,37H34V38H33zM34,37H35V38H34zM38,37H39V38H38zM41,37H42V38H41zM2,38H3V39H2zM4,38H5V39H4zM5,38H6V39H5zM6,38H7V39H6zM8,38H9V39H8zM10,38H11V39H10zM12,38H13V39H12zM15,38H16V39H15zM16,38H17V39H16zM17,38H18V39H17zM18,38H19V39H18zM20,38H21V39H20zM21,38H22V39H21zM24,38H25V39H24zM25,38H26V39H25zM28,38H29V39H28zM29,38H30V39H29zM31,38H32V39H31zM32,38H33V39H32zM33,38H34V39H33zM34,38H35V39H34zM35,38H36V39H35zM36,38H37V39H36zM37,38H38V39H37zM38,38H39V39H38zM39,38H40V39H39zM41,38H42V39H41zM42,38H43V39H42zM2,39H3V40H2zM4,39H5V40H4zM5,39H6V40H5zM6,39H7V40H6zM8,39H9V40H8zM12,39H13V40H12zM15,39H16V40H15zM16,39H17V40H16zM17,39H18V40H17zM18,39H19V40H18zM19,39H20V40H19zM21,39H22V40H21zM22,39H23V40H22zM27,39H28V40H27zM29,39H30V40H29zM30,39H31V40H30zM32,39H33V40H32zM34,39H35V40H34zM37,39H38V40H37zM40,39H41V40H40zM41,39H42V40H41zM42,39H43V40H42zM2,40H3V41H2zM4,40H5V41H4zM5,40H6V41H5zM6,40H7V41H6zM8,40H9V41H8zM11,40H12V41H11zM12,40H13V41H12zM13,40H14V41H13zM14,40H15V41H14zM16,40H17V41H16zM17,40H18V41H17zM18,40H19V41H18zM20,40H21V41H20zM22,40H23V41H22zM23,40H24V41H23zM24,40H25V41H24zM26,40H27V41H26zM28,40H29V41H28zM29,40H30V41H29zM30,40H31V41H30zM34,40H35V41H34zM35,40H36V41H35zM39,40H40V41H39zM41,40H42V41H41zM42,40H43V41H42zM2,41H3V42H2zM8,41H9V42H8zM13,41H14V42H13zM15,41H16V42H15zM17,41H18V42H17zM18,41H19V42H18zM19,41H20V42H19zM20,41H21V42H20zM21,41H22V42H21zM22,41H23V42H22zM24,41H25V42H24zM25,41H26V42H25zM26,41H27V42H26zM29,41H30V42H29zM31,41H32V42H31zM33,41H34V42H33zM34,41H35V42H34zM36,41H37V42H36zM37,41H38V42H37zM41,41H42V42H41zM42,41H43V42H42zM2,42H3V43H2zM3,42H4V43H3zM4,42H5V43H4zM5,42H6V43H5zM6,42H7V43H6zM7,42H8V43H7zM8,42H9V43H8zM11,42H12V43H11zM13,42H14V43H13zM14,42H15V43H14zM15,42H16V43H15zM17,42H18V43H17zM19,42H20V43H19zM20,42H21V43H20zM22,42H23V43H22zM24,42H25V43H24zM25,42H26V43H25zM30,42H31V43H30zM31,42H32V43H31zM34,42H35V43H34zM35,42H36V43H35zM37,42H38V43H37zM38,42H39V43H38zM39,42H40V43H39zM41,42H42V43H41z" id="qr-path" fill="#000000" fill-opacity="1" fill-rule="nonzero" stroke="none"/></svg>