<?xml version='1.0' encoding='UTF-8'?>
<svg width="49mm" height="49mm" version="1.1" viewBox="0 0 49 49" xmlns="http://www.w3.org/2000/svg"><path d="M2,2H3V3H2zM3,2H4V3H3zM4,2H5V3H4zM5,2H6V3H5zM6,2H7V3H6zM7,2H8V3H7zM8,2H9V3H8zM11,2H12V3H11zM12,2H13V3H12zM13,2H14V3H13zM15,2H16V3H15zM17,2H18V3H17zM19,2H20V3H19zM20,2H21V3H20zM21,2H22V3H21zM24,2H25V3H24zM25,2H26V3H25zM28,2H29V3H28zM29,2H30V3H29zM30,2H31V3H30zM32,2H33V3H32zM33,2H34V3H33zM38,2H39V3H38zM40,2H41V3H40zM41,2H42V3H41zM42,2H43V3H42zM43,2H44V3H43zM44,2H45V3H44zM45,2H46V3H45zM46,2H47V3H46zM2,3H3V4H2zM8,3H9V4H8zM10,3H11V4H10zM11,3H12V4H11zM12,3H13V4H12zM14,3H15V4H14zM15,3H16V4H15zM17,3H18V4H17zM18,3H19V4H18zM21,3H22V4H21zM22,3H23V4H22zM23,3H24V4H23zM25,3H26V4H25zM27,3H28V4H27zM28,3H29V4H28zM30,3H31V4H30zM31,3H32V4H31zM32,3H33V4H32zM37,3H38V4H37zM40,3H41V4H40zM46,3H47V4H46zM2,4H3V5H2zM4,4H5V5H4zM5,4H6V5H5zM6,4H7V5H6zM8,4H9V5H8zM10,4H11V5H10zM16,4H17V5H16zM19,4H20V5H19zM24,4H25V5H24zM26,4H27V5H26zM28,4H29V5H28zM32,4H33V5H32zM33,4H34V5H33zM35,4H36V5H35zM37,4H38V5H37zM40,4H41V5H40zM42,4H43V5H42zM43,4H44V5H43zM44,4H45V5H44zM46,4H47V5H46zM2,5H3V6H2zM4,5H5V6H4zM5,5H6V6H5zM6,5H7V6H6zM8,5H9V6H8zM10,5H11V6H10zM11,5H12V6H11zM13,5H14V6H13zM18,5H19V6H18zM20,5H21V6H20zM21,5H22V6H21zM24,5H25V6H24zM25,5H26V6H25zM29,5H30V6H29zM30,5H31V6H30zM31,5H32V6H31zM32,5H33V6H32zM33,5H34V6H33zM35,5H36V6H35zM37,5H38V6H37zM38,5H39V6H38zM40,5H41V6H40zM42,5H43V6H42zM43,5H44V6H43zM44,5H45V6H44zM46,5H47V6H46zM2,6H3V7H2zM4,6H5V7H4zM5,6H6V7H5zM6,6H7V7H6zM8,6H9V7H8zM10,6H11V7H10zM12,6H13V7H12zM13,6H14V7H13zM14,6H15V7H14zM15,6H16V7H15zM22,6H23V7H22zM23,6H24V7H23zM24,6H25V7H24zM25,6H26V7H25zM26,6H27V7H26zM29,6H30V7H29zM30,6H31V7H30zM32,6H33V7H32zM33,6H34V7H33zM36,6H37V7H36zM37,6H38V7H37zM38,6H39V7H38zM40,6H41V7H40zM42,6H43V7H42zM43,6H44V7H43zM44,6H45V7H44zM46,6H47V7H46zM2,7H3V8H2zM8,7H9V8H8zM10,7H11V8H10zM12,7H13V8H12zM14,7H15V8H14zM17,7H18V8H17zM19,7H20V8H19zM20,7H21V8H20zM22,7H23V8H22zM26,7H27V8H26zM27,7H28V8H27zM28,7H29V8H28zM30,7H31V8H30zM32,7H33V8H32zM33,7H34V8H33zM34,7H35V8H34zM35,7H36V8H35zM40,7H41V8H40zM46,7H47V8H46zM2,8H3V9H2zM3,8H4V9H3zM4,8H5V9H4zM5,8H6V9H5zM6,8H7V9H6zM7,8H8V9H7zM8,8H9V9H8zM10,8H11V9H10zM12,8H13V9H12zM14,8H15V9H14zM16,8H17V9H16zM18,8H19V9H18zM20,8H21V9H20zM22,8H23V9H22zM24,8H25V9H24zM26,8H27V9H26zM28,8H29V9H28zM30,8H31V9H30zM32,8H33V9H32zM34,8H35V9H34zM36,8H37V9H36zM38,8H39V9H38zM40,8H41V9H40zM41,8H42V9H41zM42,8H43V9H42zM43,8H44V9H43zM44,8H45V9H44zM45,8H46V9H45zM46,8H47V9H46zM11,9H12V10H11zM13,9H14V10H13zM14,9H15V10H14zM15,9H16V10H15zM16,9H17V10H16zM17,9H18V10H17zM20,9H21V10H20zM22,9H23V10H22zM26,9H27V10H26zM27,9H28V10H27zM29,9H30V10H29zM30,9H31V10H30zM34,9H35V10H34zM35,9H36V10H35zM36,9H37V10H36zM37,9H38V10H37zM38,9H39V10H38zM4,10H5V11H4zM7,10H8V11H7zM8,10H9V11H8zM9,10H10V11H9zM10,10H11V11H10zM11,10H12V11H11zM12,10H13V11H12zM13,10H14V11H13zM14,10H15V11H14zM18,10H19V11H18zM22,10H23V11H22zM23,10H24V11H23zM24,10H25V11H24zM25,10H26V11H25zM26,10H27V11H26zM28,10H29V11H28zM29,10H30V11H29zM30,10H31V11H30zM34,10H35V11H34zM39,10H40V11H39zM41,10H42V11H41zM42,10H43V11H42zM43,10H44V11H43zM44,10H45V11H44zM45,10H46V11H45zM2,11H3V12H2zM3,11H4V12H3zM5,11H6V12H5zM6,11H7V12H6zM7,11H8V12H7zM9,11H10V12H9zM10,11H11V12H10zM14,11H15V12H14zM15,11H16V12H15zM16,11H17V12H16zM18,11H19V12H18zM20,11H21V12H20zM21,11H22V12H21zM24,11H25V12H24zM25,11H26V12H25zM27,11H28V12H27zM30,11H31V12H30zM31,11H32V12H31zM33,11H34V12H33zM34,11H35V12H34zM37,11H38V12H37zM41,11H42V12H41zM44,11H45V12H44zM45,11H46V12H45zM46,11H47V12H46zM3,12H4V13H3zM4,12H5V13H4zM5,12H6V13H5zM8,12H9V13H8zM11,12H12V13H11zM15,12H16V13H15zM16,12H17V13H16zM17,12H18V13H17zM20,12H21V13H20zM23,12H24V13H23zM24,12H25V13H24zM25,12H26V13H25zM29,12H30V13H29zM35,12H36V13H35zM38,12H39V13H38zM39,12H40V13H39zM42,12H43V13H42zM46,12H47V13H46zM3,13H4V14H3zM4,13H5V14H4zM5,13H6V14H5zM6,13H7V14H6zM9,13H10V14H9zM10,13H11V14H10zM15,13H16V14H15zM18,13H19V14H18zM22,13H23V14H22zM24,13H25V14H24zM29,13H30V14H29zM30,13H31V14H30zM33,13H34V14H33zM34,13H35V14H34zM35,13H36V14H35zM36,13H37V14H36zM38,13H39V14H38zM41,13H42V14H41zM42,13H43V14H42zM43,13H44V14H43zM45,13H46V14H45zM2,14H3V15H2zM3,14H4V15H3zM6,14H7V15H6zM8,14H9V15H8zM11,14H12V15H11zM12,14H13V15H12zM13,14H14V15H13zM14,14H15V15H14zM15,14H16V15H15zM16,14H17V15H16zM17,14H18V15H17zM19,14H20V15H19zM21,14H22V15H21zM23,14H24V15H23zM25,14H26V15H25zM26,14H27V15H26zM27,14H28V15H27zM28,14H29V15H28zM30,14H31V15H30zM34,14H35V15H34zM35,14H36V15H35zM36,14H37V15H36zM37,14H38V15H37zM39,14H40V15H39zM40,14H41V15H40zM42,14H43V15H42zM43,14H44V15H43zM46,14H47V15H46zM6,15H7V16H6zM7,15H8V16H7zM9,15H10V16H9zM11,15H12V16H11zM13,15H14V16H13zM14,15H15V16H14zM15,15H16V16H15zM18,15H19V16H18zM20,15H21V16H20zM22,15H23V16H22zM25,15H26V16H25zM26,15H27V16H26zM29,15H30V16H29zM30,15H31V16H30zM33,15H34V16H33zM35,15H36V16H35zM39,15H40V16H39zM41,15H42V16H41zM44,15H45V16H44zM46,15H47V16H46zM3,16H4V17H3zM5,16H6V17H5zM6,16H7V17H6zM7,16H8V17H7zM8,16H9V17H8zM9,16H10V17H9zM10,16H11V17H10zM13,16H14V17H13zM14,16H15V17H14zM15,16H16V17H15zM16,16H17V17H16zM18,16H19V17H18zM19,16H20V17H19zM23,16H24V17H23zM26,16H27V17H26zM29,16H30V17H29zM33,16H34V17H33zM35,16H36V17H35zM42,16H43V17H42zM43,16H44V17H43zM44,16H45V17H44zM46,16H47V17H46zM2,17H3V18H2zM3,17H4V18H3zM5,17H6V18H5zM9,17H10V18H9zM10,17H11V18H10zM11,17H12V18H11zM16,17H17V18H16zM19,17H20V18H19zM20,17H21V18H20zM23,17H24V18H23zM24,17H25V18H24zM25,17H26V18H25zM26,17H27V18H26zM27,17H28V18H27zM28,17H29V18H28zM31,17H32V18H31zM34,17H35V18H34zM35,17H36V18H35zM36,17H37V18H36zM37,17H38V18H37zM38,17H39V18H38zM39,17H40V18H39zM42,17H43V18H42zM43,17H44V18H43zM3,18H4V19H3zM6,18H7V19H6zM7,18H8V19H7zM8,18H9V19H8zM11,18H12V19H11zM12,18H13V19H12zM13,18H14V19H13zM14,18H15V19H14zM15,18H16V19H15zM16,18H17V19H16zM17,18H18V19H17zM19,18H20V19H19zM21,18H22V19H21zM22,18H23V19H22zM23,18H24V19H23zM24,18H25V19H24zM28,18H29V19H28zM29,18H30V19H29zM30,18H31V19H30zM32,18H33V19H32zM34,18H35V19H34zM37,18H38V19H37zM40,18H41V19H40zM41,18H42V19H41zM42,18H43V19H42zM46,18H47V19H46zM2,19H3V20H2zM3,19H4V20H3zM10,19H11V20H10zM11,19H12V20H11zM13,19H14V20H13zM15,19H16V20H15zM16,19H17V20H16zM17,19H18V20H17zM18,19H19V20H18zM21,19H22V20H21zM22,19H23V20H22zM23,19H24V20H23zM24,19H25V20H24zM25,19H26V20H25zM30,19H31V20H30zM34,19H35V20H34zM35,19H36V20H35zM37,19H38V20H37zM39,19H40V20H39zM42,19H43V20H42zM43,19H44V20H43zM44,19H45V20H44zM46,19H47V20H46zM2,20H3V21H2zM6,20H7V21H6zM8,20H9V21H8zM13,20H14V21H13zM14,20H15V21H14zM15,20H16V21H15zM17,20H18V21H17zM20,20H21V21H20zM22,20H23V21H22zM23,20H24V21H23zM25,20H26V21H25zM27,20H28V21H27zM31,20H32V21H31zM32,20H33V21H32zM35,20H36V21H35zM41,20H42V21H41zM42,20H43V21H42zM43,20H44V21H43zM46,20H47V21H46zM3,21H4V22H3zM4,21H5V22H4zM5,21H6V22H5zM6,21H7V22H6zM9,21H10V22H9zM10,21H11V22H10zM14,21H15V22H14zM16,21H17V22H16zM17,21H18V22H17zM21,21H22V22H21zM22,21H23V22H22zM25,21H26V22H25zM28,21H29V22H28zM31,21H32V22H31zM32,21H33V22H32zM33,21H34V22H33zM34,21H35V22H34zM39,21H40V22H39zM40,21H41V22H40zM42,21H43V22H42zM43,21H44V22H43zM45,21H46V22H45zM3,22H4V23H3zM4,22H5V23H4zM5,22H6V23H5zM6,22H7V23H6zM7,22H8V23H7zM8,22H9V23H8zM9,22H10V23H9zM10,22H11V23H10zM13,22H14V23H13zM14,22H15V23H14zM18,22H19V23H18zM19,22H20V23H19zM20,22H21V23H20zM22,22H23V23H22zM23,22H24V23H23zM24,22H25V23H24zM25,22H26V23H25zM26,22H27V23H26zM27,22H28V23H27zM31,22H32V23H31zM34,22H35V23H34zM35,22H36V23H35zM36,22H37V23H36zM37,22H38V23H37zM38,22H39V23H38zM39,22H40V23H39zM40,22H41V23H40zM41,22H42V23H41zM42,22H43V23H42zM43,22H44V23H43zM45,22H46V23H45zM4,23H5V24H4zM5,23H6V24H5zM6,23H7V24H6zM10,23H11V24H10zM15,23H16V24H15zM16,23H17V24H16zM18,23H19V24H18zM19,23H20V24H19zM21,23H22V24H21zM22,23H23V24H22zM26,23H27V24H26zM27,23H28V24H27zM28,23H29V24H28zM29,23H30V24H29zM31,23H32V24H31zM32,23H33V24H32zM33,23H34V24H33zM35,23H36V24H35zM37,23H38V24H37zM38,23H39V24H38zM42,23H43V24H42zM44,23H45V24H44zM46,23H47V24H46zM4,24H5V25H4zM6,24H7V25H6zM8,24H9V25H8zM10,24H11V25H10zM12,24H13V25H12zM19,24H20V25H19zM22,24H23V25H22zM24,24H25V25H24zM26,24H27V25H26zM27,24H28V25H27zM30,24H31V25H30zM31,24H32V25H31zM32,24H33V25H32zM33,24H34V25H33zM34,24H35V25H34zM35,24H36V25H35zM37,24H38V25H37zM38,24H39V25H38zM40,24H41V25H40zM42,24H43V25H42zM43,24H44V25H43zM44,24H45V25H44zM46,24H47V25H46zM2,25H3V26H2zM5,25H6V26H5zM6,25H7V26H6zM10,25H11V26H10zM16,25H17V26H16zM17,25H18V26H17zM18,25H19V26H18zM20,25H21V26H20zM21,25H22V26H21zM22,25H23V26H22zM26,25H27V26H26zM29,25H30V26H29zM30,25H31V26H30zM34,25H35V26H34zM35,25H36V26H35zM38,25H39V26H38zM42,25H43V26H42zM43,25H44V26H43zM45,25H46V26H45zM46,25H47V26H46zM4,26H5V27H4zM6,26H7V27H6zM7,26H8V27H7zM8,26H9V27H8zM9,26H10V27H9zM10,26H11V27H10zM11,26H12V27H11zM14,26H15V27H14zM15,26H16V27H15zM18,26H19V27H18zM19,26H20V27H19zM21,26H22V27H21zM22,26H23V27H22zM23,26H24V27H23zM24,26H25V27H24zM25,26H26V27H25zM26,26H27V27H26zM29,26H30V27H29zM32,26H33V27H32zM34,26H35V27H34zM35,26H36V27H35zM36,26H37V27H36zM37,26H38V27H37zM38,26H39V27H38zM39,26H40V27H39zM40,26H41V27H40zM41,26H42V27H41zM42,26H43V27H42zM2,27H3V28H2zM3,27H4V28H3zM9,27H10V28H9zM10,27H11V28H10zM11,27H12V28H11zM13,27H14V28H13zM15,27H16V28H15zM16,27H17V28H16zM19,27H20V28H19zM20,27H21V28H20zM21,27H22V28H21zM23,27H24V28H23zM25,27H26V28H25zM26,27H27V28H26zM29,27H30V28H29zM33,27H34V28H33zM35,27H36V28H35zM37,27H38V28H37zM40,27H41V28H40zM41,27H42V28H41zM46,27H47V28H46zM4,28H5V29H4zM5,28H6V29H5zM6,28H7V29H6zM8,28H9V29H8zM11,28H12V29H11zM12,28H13V29H12zM13,28H14V29H13zM17,28H18V29H17zM20,28H21V29H20zM22,28H23V29H22zM26,28H27V29H26zM31,28H32V29H31zM33,28H34V29H33zM35,28H36V29H35zM38,28H39V29H38zM40,28H41V29H40zM42,28H43V29H42zM46,28H47V29H46zM2,29H3V30H2zM4,29H5V30H4zM9,29H10V30H9zM10,29H11V30H10zM13,29H14V30H13zM15,29H16V30H15zM17,29H18V30H17zM18,29H19V30H18zM20,29H21V30H20zM26,29H27V30H26zM27,29H28V30H27zM30,29H31V30H30zM31,29H32V30H31zM32,29H33V30H32zM33,29H34V30H33zM34,29H35V30H34zM35,29H36V30H35zM36,29H37V30H36zM37,29H38V30H37zM38,29H39V30H38zM40,29H41V30H40zM41,29H42V30H41zM45,29H46V30H45zM4,30H5V31H4zM5,30H6V31H5zM6,30H7V31H6zM8,30H9V31H8zM9,30H10V31H9zM10,30H11V31H10zM12,30H13V31H12zM13,30H14V31H13zM14,30H15V31H14zM15,30H16V31H15zM17,30H18V31H17zM18,30H19V31H18zM19,30H20V31H19zM26,30H27V31H26zM27,30H28V31H27zM28,30H29V31H28zM29,30H30V31H29zM32,30H33V31H32zM33,30H34V31H33zM34,30H35V31H34zM37,30H38V31H37zM39,30H40V31H39zM40,30H41V31H40zM43,30H44V31H43zM2,31H3V32H2zM3,31H4V32H3zM5,31H6V32H5zM6,31H7V32H6zM7,31H8V32H7zM10,31H11V32H10zM12,31H13V32H12zM13,31H14V32H13zM15,31H16V32H15zM16,31H17V32H16zM17,31H18V32H17zM19,31H20V32H19zM22,31H23V32H22zM24,31H25V32H24zM27,31H28V32H27zM31,31H32V32H31zM33,31H34V32H33zM34,31H35V32H34zM35,31H36V32H35zM39,31H40V32H39zM41,31H42V32H41zM44,31H45V32H44zM46,31H47V32H46zM2,32H3V33H2zM3,32H4V33H3zM4,32H5V33H4zM6,32H7V33H6zM7,32H8V33H7zM8,32H9V33H8zM9,32H10V33H9zM11,32H12V33H11zM12,32H13V33H12zM13,32H14V33H13zM14,32H15V33H14zM15,32H16V33H15zM16,32H17V33H16zM17,32H18V33H17zM18,32H19V33H18zM19,32H20V33H19zM25,32H26V33H25zM26,32H27V33H26zM28,32H29V33H28zM29,32H30V33H29zM31,32H32V33H31zM32,32H33V33H32zM35,32H36V33H35zM37,32H38V33H37zM38,32H39V33H38zM40,32H41V33H40zM41,32H42V33H41zM42,32H43V33H42zM44,32H45V33H44zM46,32H47V33H46zM3,33H4V34H3zM6,33H7V34H6zM9,33H10V34H9zM10,33H11V34H10zM11,33H12V34H11zM14,33H15V34H14zM15,33H16V34H15zM20,33H21V34H20zM22,33H23V34H22zM27,33H28V34H27zM28,33H29V34H28zM29,33H30V34H29zM32,33H33V34H32zM34,33H35V34H34zM35,33H36V34H35zM37,33H38V34H37zM38,33H39V34H38zM39,33H40V34H39zM40,33H41V34H40zM41,33H42V34H41zM43,33H44V34H43zM45,33H46V34H45zM46,33H47V34H46zM4,34H5V35H4zM5,34H6V35H5zM6,34H7V35H6zM8,34H9V35H8zM9,34H10V35H9zM10,34H11V35H10zM11,34H12V35H11zM12,34H13V35H12zM17,34H18V35H17zM23,34H24V35H23zM24,34H25V35H24zM30,34H31V35H30zM31,34H32V35H31zM34,34H35V35H34zM36,34H37V35H36zM37,34H38V35H37zM41,34H42V35H41zM43,34H44V35H43zM45,34H46V35H45zM46,34H47V35H46zM2,35H3V36H2zM5,35H6V36H5zM7,35H8V36H7zM10,35H11V36H10zM14,35H15V36H14zM15,35H16V36H15zM18,35H19V36H18zM20,35H21V36H20zM21,35H22V36H21zM22,35H23V36H22zM26,35H27V36H26zM28,35H29V36H28zM29,35H30V36H29zM31,35H32V36H31zM33,35H34V36H33zM35,35H36V36H35zM38,35H39V36H38zM39,35H40V36H39zM41,35H42V36H41zM43,35H44V36H43zM45,35H46V36H45zM46,35H47V36H46zM6,36H7V37H6zM8,36H9V37H8zM13,36H14V37H13zM18,36H19V37H18zM19,36H20V37H19zM20,36H21V37H20zM23,36H24V37H23zM24,36H25V37H24zM27,36H28V37H27zM29,36H30V37H29zM30,36H31V37H30zM33,36H34V37H33zM34,36H35V37H34zM37,36H38V37H37zM38,36H39V37H38zM40,36H41V37H40zM41,36H42V37H41zM43,36H44V37H43zM44,36H45V37H44zM46,36H47V37H46zM3,37H4V38H3zM4,37H5V38H4zM5,37H6V38H5zM6,37H7V38H6zM9,37H10V38H9zM12,37H13V38H12zM14,37H15V38H14zM15,37H16V38H15zM20,37H21V38H20zM21,37H22V38H21zM24,37H25V38H24zM25,37H26V38H25zM29,37H30V38H29zM30,37H31V38H30zM31,37H32V38H31zM32,37H33V38H32zM34,37H35V38H34zM37,37H38V38H37zM38,37H39V38H38zM40,37H41V38H40zM41,37H42V38H41zM42,37H43V38H42zM43,37H44V38H43zM45,37H46V38H45zM2,38H3V39H2zM5,38H6V39H5zM6,38H7V39H6zM8,38H9V39H8zM12,38H13V39H12zM14,38H15V39H14zM16,38H17V39H16zM18,38H19V39H18zM19,38H20V39H19zM20,38H21V39H20zM21,38H22V39H21zM22,38H23V39H22zM23,38H24V39H23zM24,38H25V39H24zM25,38H26V39H25zM26,38H27V39H26zM28,38H29V39H28zM29,38H30V39H29zM31,38H32V39H31zM32,38H33V39H32zM33,38H34V39H33zM34,38H35V39H34zM37,38H38V39H37zM38,38H39V39H38zM39,38H40V39H39zM40,38H41V39H40zM41,38H42V39H41zM42,38H43V39H42zM45,38H46V39H45zM10,39H11V40H10zM12,39H13V40H12zM13,39H14V40H13zM14,39H15V40H14zM15,39H16V40H15zM21,39H22V40H21zM22,39H23V40H22zM26,39H27V40H26zM28,39H29V40H28zM29,39H30V40H29zM31,39H32V40H31zM32,39H33V40H32zM34,39H35V40H34zM35,39H36V40H35zM37,39H38V40H37zM38,39H39V40H38zM42,39H43V40H42zM46,39H47V40H46zM2,40H3V41H2zM3,40H4V41H3zM4,40H5V41H4zM5,40H6V41H5zM6,40H7V41H6zM7,40H8V41H7zM8,40H9V41H8zM10,40H11V41H10zM11,40H12V41H11zM14,40H15V41H14zM15,40H16V41H15zM16,40H17V41H16zM17,40H18V41H17zM18,40H19V41H18zM19,40H20V41H19zM20,40H21V41H20zM22,40H23V41H22zM24,40H25V41H24zM26,40H27V41H26zM28,40H29V41H28zM33,40H34V41H33zM34,40H35V41H34zM35,40H36V41H35zM37,40H38V41H37zM38,40H39V41H38zM40,40H41V41H40zM42,40H43V41H42zM43,40H44V41H43zM46,40H47V41H46zM2,41H3V42H2zM8,41H9V42H8zM10,41H11V42H10zM12,41H13V42H12zM13,41H14V42H13zM14,41H15V42H14zM16,41H17V42H16zM19,41H20V42H19zM20,41H21V42H20zM22,41H23V42H22zM26,41H27V42H26zM28,41H29V42H28zM30,41H31V42H30zM34,41H35V42H34zM35,41H36V42H35zM38,41H39V42H38zM42,41H43V42H42zM43,41H44V42H43zM2,42H3V43H2zM4,42H5V43H4zM5,42H6V43H5zM6,42H7V43H6zM8,42H9V43H8zM11,42H12V43H11zM18,42H19V43H18zM20,42H21V43H20zM22,42H23V43H22zM23,42H24V43H23zM24,42H25V43H24zM25,42H26V43H25zM26,42H27V43H26zM27,42H28V43H27zM28,42H29V43H28zM31,42H32V43H31zM34,42H35V43H34zM36,42H37V43H36zM38,42H39V43H38zM39,42H40V43H39zM40,42H41V43H40zM41,42H42V43H41zM42,42H43V43H42zM46,42H47V43H46zM2,43H3V44H2zM4,43H5V44H4zM5,43H6V44H5zM6,43H7V44H6zM8,43H9V44H8zM12,43H13V44H12zM13,43H14V44H13zM14,43H15V44H14zM15,43H16V44H15zM17,43H18V44H17zM18,43H19V44H18zM19,43H20V44H19zM22,43H23V44H22zM29,43H30V44H29zM33,43H34V44H33zM37,43H38V44H37zM38,43H39V44H38zM42,43H43V44H42zM43,43H44V44H43zM45,43H46V44H45zM46,43H47V44H46zM2,44H3V45H2zM4,44H5V45H4zM5,44H6V45H5zM6,44H7V45H6zM8,44H9V45H8zM10,44H11V45H10zM15,44H16V45H15zM16,44H17V45H16zM17,44H18V45H17zM18,44H19V45H18zM20,44H21V45H20zM21,44H22V45H21zM23,44H24V45H23zM27,44H28V45H27zM28,44H29V45H28zM29,44H30V45H29zM30,44H31V45H30zM31,44H32V45H31zM35,44H36V45H35zM38,44H39V45H38zM42,44H43V45H42zM44,44H45V45H44zM45,44H46V45H45zM46,44H47V45H46zM2,45H3V46H2zM8,45H9V46H8zM13,45H14V46H13zM14,45H15V46H14zM16,45H17V46H16zM17,45H18V46H17zM18,45H19V46H18zM19,45H20V46H19zM21,45H22V46H21zM23,45H24V46H23zM24,45H25V46H24zM25,45H26V46H25zM29,45H30V46H29zM32,45H33V46H32zM34,45H35V46H34zM35,45H36V46H35zM36,45H37V46H36zM37,45H38V46H37zM38,45H39V46H38zM41,45H42V46H41zM43,45H44V46H43zM2,46H3V47H2zM3,46H4V47H3zM4,46H5V47H4zM5,46H6V47H5zM6,46H7V47H6zM7,46H8V47H7zM8,46H9V47H8zM12,46H13V47H12zM13,46H14V47H13zM14,46H15V47H14zM16,46H17V47H16zM21,46H22V47H21zM22,46H23V47H22zM26,46H27V47H26zM27,46H28V47H27zM34,46H35V47H34zM37,46H38V47H37zM38,46H39V47H38zM43,46H44V47H43zM46,46H47V47H46z" id="qr-path" fill="#000000" fill-opacity="1" fill-rule="nonzero" stroke="none"/></svg>